<svg width="132" height="123" viewBox="0 0 132 123" fill="none" xmlns="http://www.w3.org/2000/svg">
<path d="M95.5456 118.269C95.5456 118.269 97.9461 113.692 101.033 108.247C102.678 105.347 105.955 99.1938 106.984 96.0953C107.913 93.2933 108.536 90.3589 108.802 87.413C109.056 84.5874 109.13 81.5499 107.843 78.7501C105.093 72.7659 95.1552 67.3761 88.8249 71.7538C86.9379 73.0587 85.4804 75.7573 86.8831 77.8726C89.2073 81.3773 95.0439 83.0248 98.8807 81.0925C102.536 79.2515 104.612 75.4864 106.161 72.2894C107.534 69.4545 108.746 66.3795 109.137 63.2587C109.564 59.8613 108.838 56.5314 107.441 53.2043C101.53 39.1163 83.4652 26.3003 65.5476 26.3778C52.4141 26.4346 40.9128 32.3945 31.5034 38.8872C25.2211 43.2221 19.1147 48.1704 14.8228 54.0202" stroke="#E08C99" stroke-width="8" stroke-linecap="round"/>
<path d="M13.817 56.4958C14.2705 56.633 14.716 56.6293 15.1797 56.6174C16.536 56.5826 17.885 56.5075 19.2429 56.4794C21.2892 56.4371 23.3186 56.3356 25.3474 56.1923C26.3859 56.1189 27.2744 56.0786 28.3087 56.1962C29.565 56.3391 30.793 56.4073 32.0541 56.4975C33.159 56.5766 34.4543 56.4424 35.5178 56.8121" stroke="#E08C99" stroke-width="8" stroke-linecap="round"/>
<path d="M12.445 55.7963C13.181 53.9962 13.3311 52.1185 13.7524 50.233C14.3324 47.6372 15.0139 45.0543 15.7341 42.4946C16.2606 40.6234 16.8951 38.8289 17.6323 37.0256" stroke="#E08C99" stroke-width="8" stroke-linecap="round"/>
</svg>
