<svg width="24" height="24" viewBox="0 0 24 24" fill="none" xmlns="http://www.w3.org/2000/svg">
<path d="M20 4H4C2.89543 4 2 4.89543 2 6V18C2 19.1046 2.89543 20 4 20H20C21.1046 20 22 19.1046 22 18V6C22 4.89543 21.1046 4 20 4Z" stroke="#543837" stroke-width="2" stroke-linecap="round" stroke-linejoin="round"/>
<path d="M22 7L15 11.5M9 11.5L2 7" stroke="#543837" stroke-width="2" stroke-linecap="round" stroke-linejoin="round"/>
<path d="M14.1 14.0556C14.547 13.65 15 13.1639 15 12.5278C15 12.1226 14.8262 11.734 14.5167 11.4475C14.2073 11.161 13.7876 11 13.35 11C12.822 11 12.45 11.1389 12 11.5556C11.55 11.1389 11.178 11 10.65 11C10.2124 11 9.79271 11.161 9.48327 11.4475C9.17384 11.734 9 12.1226 9 12.5278C9 13.1667 9.45 13.6528 9.9 14.0556L12 16L14.1 14.0556Z" stroke="#E08C99" stroke-width="1.5" stroke-linecap="round" stroke-linejoin="round"/>
</svg>
